<svg fill="#707070" xmlns="http://www.w3.org/2000/svg" width="100" height="100" viewBox="0 0 100 100"><path   d="M50 34c-8.8 0-16 7.2-16 16s7.2 16 16 16 16-7.2 16-16-7.2-16-16-16zm0 28c-6.6 0-12-5.4-12-12s5.4-12 12-12 12 5.4 12 12-5.4 12-12 12zm44.4-13.4l-8.6-8.7C76.3 30.3 63.6 25 50 25s-26.3 5.3-35.8 14.9l-8.6 8.7c-.8.8-.8 2 0 2.8l8.6 8.7C23.7 69.7 36.4 75 50 75s26.3-5.3 35.8-14.9l8.6-8.7c.8-.8.8-2 0-2.8zM83 57.3C74.2 66.1 62.5 71 50 71s-24.2-4.9-33-13.7L9.8 50l7.2-7.3C25.8 33.9 37.5 29 50 29s24.2 4.9 33 13.7l7.2 7.3-7.2 7.3z"/><path fill="#00F" d="M944-790V894H-840V-790H944m8-8H-848V902H952V-798z"/></svg>